<?xml version="1.0" encoding="UTF-8" standalone="no"?>
<!-- Created with Inkscape (http://www.inkscape.org/) -->

<svg
   xmlns:dc="http://purl.org/dc/elements/1.1/"
   xmlns:cc="http://creativecommons.org/ns#"
   xmlns:rdf="http://www.w3.org/1999/02/22-rdf-syntax-ns#"
   xmlns:svg="http://www.w3.org/2000/svg"
   xmlns="http://www.w3.org/2000/svg"
   xmlns:sodipodi="http://sodipodi.sourceforge.net/DTD/sodipodi-0.dtd"
   xmlns:inkscape="http://www.inkscape.org/namespaces/inkscape"
   width="256"
   height="64"
   viewBox="0 0 256 64.000001"
   id="svg2"
   version="1.1"
   inkscape:version="0.91 r"
   sodipodi:docname="grass.svg"
   inkscape:export-filename="/home/pgears/Documentos/1GAM/Planet-Rider/design/decoration/grass.png"
   inkscape:export-xdpi="90"
   inkscape:export-ydpi="90">
  <defs
     id="defs4" />
  <sodipodi:namedview
     id="base"
     pagecolor="#ffffff"
     bordercolor="#666666"
     borderopacity="1.0"
     inkscape:pageopacity="0.0"
     inkscape:pageshadow="2"
     inkscape:zoom="2.8"
     inkscape:cx="71.244204"
     inkscape:cy="70.234319"
     inkscape:document-units="px"
     inkscape:current-layer="layer1"
     showgrid="false"
     units="px"
     inkscape:window-width="1365"
     inkscape:window-height="715"
     inkscape:window-x="1"
     inkscape:window-y="0"
     inkscape:window-maximized="1" />
  <metadata
     id="metadata7">
    <rdf:RDF>
      <cc:Work
         rdf:about="">
        <dc:format>image/svg+xml</dc:format>
        <dc:type
           rdf:resource="http://purl.org/dc/dcmitype/StillImage" />
        <dc:title></dc:title>
      </cc:Work>
    </rdf:RDF>
  </metadata>
  <g
     inkscape:label="Capa 1"
     inkscape:groupmode="layer"
     id="layer1"
     transform="translate(0,-988.36216)">
    <path
       style="opacity:1;fill:#22280b;fill-opacity:1;fill-rule:nonzero;stroke:none;stroke-width:2;stroke-linecap:round;stroke-linejoin:round;stroke-miterlimit:4;stroke-dasharray:none;stroke-dashoffset:0;stroke-opacity:1"
       d="m 0,1014.1479 8.2142857,-26.4286 5.7142853,23.9286 6.785715,-23.57145 2.5,34.28575 L 39.642857,986.29073 42.5,1011.6479 55,997.7193 c 0,0 3.928572,21.7857 4.285714,19.6429 0.357143,-2.1429 5,-32.85718 6.428572,-30.71433 1.428571,2.14286 9.642857,30.35713 9.642857,30.35713 l 16.428571,-23.92855 c 0,0 0,26.78575 1.785715,24.64285 1.785714,-2.1429 13.928571,-23.92857 14.285711,-22.14285 0.35715,1.78571 0,24.28575 2.14286,19.64285 2.14286,-4.6429 9.64286,-27.14285 9.64286,-27.14285 0,0 4.64285,24.28575 6.07143,22.49995 1.42857,-1.7857 15.35714,-25.3571 15.35714,-25.3571 0,0 2.85714,20 3.21428,18.5714 0.35715,-1.4285 8.92858,-19.99997 9.28572,-17.49997 0.35714,2.5 5.71428,21.78567 5.71428,21.78567 0,0 18.21429,-21.42853 18.21429,-18.21424 0,3.21429 3.21429,26.42854 3.21429,26.42854 L 192.5,996.64787 c 0,0 3.57143,22.85713 5,20.71433 1.42857,-2.1429 4.28571,-30.00004 4.28571,-30.00004 L 215,1012.7193 c 0,0 10.71429,-23.57143 10.71429,-22.14285 0,1.42857 4.64285,22.85715 4.64285,22.85715 l 18.57143,-21.78573 1.07143,13.57143 6,-6.07143 0,53.21433 -256,0 z"
       id="path3336"
       inkscape:connector-curvature="0"
       sodipodi:nodetypes="ccccccccssccsssccccscscccccsccccccc" />
  </g>
</svg>
