<?xml version="1.0" encoding="UTF-8" standalone="no"?>
<!-- Created with Inkscape (http://www.inkscape.org/) -->

<svg
   xmlns:dc="http://purl.org/dc/elements/1.1/"
   xmlns:cc="http://creativecommons.org/ns#"
   xmlns:rdf="http://www.w3.org/1999/02/22-rdf-syntax-ns#"
   xmlns:svg="http://www.w3.org/2000/svg"
   xmlns="http://www.w3.org/2000/svg"
   xmlns:sodipodi="http://sodipodi.sourceforge.net/DTD/sodipodi-0.dtd"
   xmlns:inkscape="http://www.inkscape.org/namespaces/inkscape"
   width="1024"
   height="600"
   viewBox="0 0 1024 600.00001"
   id="svg2"
   version="1.1"
   inkscape:version="0.91 r"
   sodipodi:docname="main.svg">
  <defs
     id="defs4">
    <filter
       style="color-interpolation-filters:sRGB;"
       inkscape:label="Drop Shadow"
       id="filter4333">
      <feFlood
         flood-opacity="1"
         flood-color="rgb(0,0,0)"
         result="flood"
         id="feFlood4335" />
      <feComposite
         in="flood"
         in2="SourceGraphic"
         operator="out"
         result="composite1"
         id="feComposite4337" />
      <feGaussianBlur
         in="composite1"
         stdDeviation="4"
         result="blur"
         id="feGaussianBlur4339" />
      <feOffset
         dx="2"
         dy="2"
         result="offset"
         id="feOffset4341" />
      <feComposite
         in="offset"
         in2="SourceGraphic"
         operator="atop"
         result="composite2"
         id="feComposite4343" />
    </filter>
    <filter
       style="color-interpolation-filters:sRGB"
       inkscape:label="Drop Shadow"
       id="filter4333-9">
      <feFlood
         flood-opacity="1"
         flood-color="rgb(0,0,0)"
         result="flood"
         id="feFlood4335-2" />
      <feComposite
         in="flood"
         in2="SourceGraphic"
         operator="out"
         result="composite1"
         id="feComposite4337-6" />
      <feGaussianBlur
         in="composite1"
         stdDeviation="4"
         result="blur"
         id="feGaussianBlur4339-4" />
      <feOffset
         dx="2"
         dy="2"
         result="offset"
         id="feOffset4341-4" />
      <feComposite
         in="offset"
         in2="SourceGraphic"
         operator="atop"
         result="composite2"
         id="feComposite4343-8" />
    </filter>
    <filter
       style="color-interpolation-filters:sRGB"
       inkscape:label="Drop Shadow"
       id="filter4333-7">
      <feFlood
         flood-opacity="1"
         flood-color="rgb(0,0,0)"
         result="flood"
         id="feFlood4335-1" />
      <feComposite
         in="flood"
         in2="SourceGraphic"
         operator="out"
         result="composite1"
         id="feComposite4337-2" />
      <feGaussianBlur
         in="composite1"
         stdDeviation="4"
         result="blur"
         id="feGaussianBlur4339-7" />
      <feOffset
         dx="2"
         dy="2"
         result="offset"
         id="feOffset4341-3" />
      <feComposite
         in="offset"
         in2="SourceGraphic"
         operator="atop"
         result="composite2"
         id="feComposite4343-1" />
    </filter>
  </defs>
  <sodipodi:namedview
     id="base"
     pagecolor="#ffffff"
     bordercolor="#666666"
     borderopacity="1.0"
     inkscape:pageopacity="0.0"
     inkscape:pageshadow="2"
     inkscape:zoom="0.7"
     inkscape:cx="494.33754"
     inkscape:cy="222.84668"
     inkscape:document-units="px"
     inkscape:current-layer="layer1"
     showgrid="false"
     units="px"
     inkscape:window-width="1365"
     inkscape:window-height="715"
     inkscape:window-x="1"
     inkscape:window-y="0"
     inkscape:window-maximized="1" />
  <metadata
     id="metadata7">
    <rdf:RDF>
      <cc:Work
         rdf:about="">
        <dc:format>image/svg+xml</dc:format>
        <dc:type
           rdf:resource="http://purl.org/dc/dcmitype/StillImage" />
        <dc:title />
      </cc:Work>
    </rdf:RDF>
  </metadata>
  <g
     inkscape:label="Capa 1"
     inkscape:groupmode="layer"
     id="layer1"
     transform="translate(0,-452.36216)">
    <g
       id="g4436"
       inkscape:export-xdpi="90"
       inkscape:export-ydpi="90">
      <g
         id="g4171">
        <rect
           style="opacity:1;fill:#6c5353;fill-opacity:1;fill-rule:nonzero;stroke:none;stroke-width:2;stroke-linecap:round;stroke-linejoin:round;stroke-miterlimit:4;stroke-dasharray:none;stroke-dashoffset:0;stroke-opacity:1"
           id="rect4167"
           width="1024"
           height="190"
           x="1.4285715"
           y="480.93359"
           ry="18.05892"
           rx="20" />
        <rect
           rx="20"
           ry="15.886418"
           y="492.36215"
           x="1.4285715"
           height="167.14285"
           width="1024"
           id="rect4169"
           style="opacity:1;fill:#483737;fill-opacity:1;fill-rule:nonzero;stroke:none;stroke-width:2;stroke-linecap:round;stroke-linejoin:round;stroke-miterlimit:4;stroke-dasharray:none;stroke-dashoffset:0;stroke-opacity:1" />
      </g>
      <flowRoot
         transform="matrix(1.3043222,0,0,1.3043222,44.629336,421.11816)"
         style="font-style:normal;font-variant:normal;font-weight:normal;font-stretch:normal;font-size:90px;line-height:125%;font-family:'Arista 2.0';-inkscape-font-specification:'Arista 2.0, ';letter-spacing:0px;word-spacing:0px;fill:#f9f9f9;fill-opacity:1;stroke:none;stroke-width:1px;stroke-linecap:butt;stroke-linejoin:miter;stroke-opacity:1;filter:url(#filter4333)"
         id="flowRoot4193"
         xml:space="preserve"><flowRegion
           id="flowRegion4195"><rect
             style="font-style:normal;font-variant:normal;font-weight:normal;font-stretch:normal;font-size:90px;font-family:'Arista 2.0';-inkscape-font-specification:'Arista 2.0, ';fill:#f9f9f9"
             y="55.714287"
             x="102.85714"
             height="282.85715"
             width="1027.1429"
             id="rect4197" /></flowRegion><flowPara
           style="fill:#f9f9f9"
           id="flowPara4199">PLANET RIDER</flowPara></flowRoot>    </g>
    <g
       id="g4409"
       transform="translate(0,-6)"
       inkscape:export-xdpi="90"
       inkscape:export-ydpi="90"
       style="fill:#1a1a1a;fill-opacity:1">
      <path
         style="opacity:1;fill:#1a1a1a;fill-opacity:1;fill-rule:nonzero;stroke:none;stroke-width:2;stroke-linecap:round;stroke-linejoin:round;stroke-miterlimit:4;stroke-dasharray:none;stroke-dashoffset:0;stroke-opacity:1"
         d="M 501.29297 284 C 495.46139 284 490.76758 288.23831 490.76758 293.50391 L 490.76758 374.49609 C 490.76758 379.76169 495.46139 384 501.29297 384 L 1019.1875 384 C 1025.0191 384 1029.7148 379.76169 1029.7148 374.49609 L 1029.7148 293.50391 C 1029.7148 288.23831 1025.0191 284 1019.1875 284 L 501.29297 284 z M 522.16016 311.16211 L 535.22852 311.16211 C 537.71762 311.16211 540.05764 311.63422 542.24805 312.58008 C 544.48824 313.52594 546.42946 314.82204 548.07227 316.46484 C 549.71507 318.10765 551.00922 320.04887 551.95508 322.28906 C 552.90094 324.47947 553.37305 326.81949 553.37305 329.30859 C 553.37305 331.79769 552.90094 334.16215 551.95508 336.40234 C 551.00922 338.59275 549.71507 340.50954 548.07227 342.15234 C 546.42946 343.79515 544.48824 345.0893 542.24805 346.03516 C 540.05764 346.98101 537.71762 347.45312 535.22852 347.45312 L 527.16406 347.45312 L 527.16406 354.02539 C 527.16406 355.41929 526.66556 356.61373 525.66992 357.60938 C 524.72406 358.55523 523.55405 359.02734 522.16016 359.02734 C 520.76626 359.02734 519.57181 358.55523 518.57617 357.60938 C 517.63031 356.61373 517.15625 355.41929 517.15625 354.02539 L 517.15625 316.16602 C 517.15625 314.77212 517.63031 313.60211 518.57617 312.65625 C 519.57181 311.66061 520.76626 311.16211 522.16016 311.16211 z M 561.98047 311.3125 C 563.2748 311.3125 564.41842 311.80905 565.41406 312.80469 C 566.45948 313.75055 566.98242 314.92056 566.98242 316.31445 L 566.98242 348.87305 L 584.97852 348.87305 C 586.32263 348.87305 587.4682 349.36959 588.41406 350.36523 C 589.4097 351.31109 589.9082 352.4811 589.9082 353.875 C 589.9082 355.31868 589.4097 356.53952 588.41406 357.53516 C 587.4682 358.48101 586.32263 358.95312 584.97852 358.95312 L 561.98047 358.95312 C 560.53679 358.95312 559.34039 358.48101 558.39453 357.53516 C 557.44867 356.53952 556.92769 355.31868 556.82812 353.875 L 556.82812 316.31445 C 556.82812 314.92056 557.32467 313.75055 558.32031 312.80469 C 559.31595 311.80905 560.53679 311.3125 561.98047 311.3125 z M 610.69727 311.3125 C 613.0868 311.3125 615.37795 311.76017 617.56836 312.65625 C 619.75877 313.50254 621.67555 314.72143 623.31836 316.31445 C 624.96117 317.8577 626.27975 319.69922 627.27539 321.83984 C 628.27103 323.98047 628.76953 326.29606 628.76953 328.78516 L 628.76953 353.94922 C 628.76953 355.24355 628.29547 356.36469 627.34961 357.31055 C 626.45353 358.2564 625.33435 358.75295 623.99023 358.80273 C 622.64612 358.80273 621.47611 358.38145 620.48047 357.53516 C 619.53461 356.63908 619.06055 355.51794 619.06055 354.17383 L 619.06055 345.4375 L 602.41016 345.4375 L 602.41016 353.94922 C 602.41016 355.24355 601.91166 356.38913 600.91602 357.38477 C 599.92038 358.33062 598.7748 358.80273 597.48047 358.80273 C 596.18614 358.80273 595.04252 358.35506 594.04688 357.45898 C 593.05123 356.56291 592.55273 355.46816 592.55273 354.17383 L 592.55273 329.38281 C 592.60252 326.89371 593.07463 324.55369 593.9707 322.36328 C 594.91656 320.17287 596.18627 318.25609 597.7793 316.61328 C 599.4221 314.97048 601.33889 313.67633 603.5293 312.73047 C 605.71971 311.78461 608.1086 311.3125 610.69727 311.3125 z M 637.34766 311.3125 C 638.79133 311.3125 639.98578 311.80905 640.93164 312.80469 C 641.92728 313.75055 642.42383 314.92056 642.42383 316.31445 L 642.42383 322.96094 C 642.42383 325.002 643.09729 326.71939 644.44141 328.11328 C 645.8353 329.4574 647.55269 330.12891 649.59375 330.12891 C 651.63481 330.12891 653.3522 329.4574 654.74609 328.11328 C 656.13999 326.71939 656.83594 325.002 656.83594 322.96094 L 656.83594 316.31445 C 656.83594 314.92056 657.31 313.75055 658.25586 312.80469 C 659.2515 311.80905 660.42151 311.3125 661.76562 311.3125 C 663.2093 311.3125 664.40375 311.80905 665.34961 312.80469 C 666.34525 313.75055 666.8418 314.92056 666.8418 316.31445 L 666.8418 322.96094 L 666.8418 323.03516 C 666.8418 324.97665 666.51826 326.84261 665.87109 328.63477 C 665.27371 330.37714 664.42919 331.97038 663.33398 333.41406 C 662.23878 334.85774 660.91824 336.10302 659.375 337.14844 C 657.88154 338.19386 656.23942 338.96507 654.44727 339.46289 L 654.44727 354.02539 C 654.44727 355.41929 653.94877 356.61373 652.95312 357.60938 C 652.00727 358.55523 650.86365 359.02734 649.51953 359.02734 C 648.07585 359.02734 646.85502 358.55523 645.85938 357.60938 C 644.91352 356.61373 644.44141 355.41929 644.44141 354.02539 L 644.44141 339.38867 C 642.69904 338.84107 641.08135 338.04542 639.58789 337 C 638.14421 335.95458 636.8745 334.7093 635.7793 333.26562 C 634.73387 331.82195 633.91184 330.2287 633.31445 328.48633 C 632.71707 326.74396 632.41797 324.90244 632.41797 322.96094 L 632.41797 316.31445 C 632.41797 314.92056 632.89203 313.75055 633.83789 312.80469 C 634.83353 311.80905 636.00354 311.3125 637.34766 311.3125 z M 610.62305 321.01953 C 609.52784 321.01953 608.48197 321.24337 607.48633 321.69141 C 606.49069 322.08966 605.61978 322.63704 604.87305 323.33398 C 604.12632 324.03093 603.53007 324.87741 603.08203 325.87305 C 602.63399 326.86869 602.41016 327.91456 602.41016 329.00977 L 602.41016 335.73047 L 619.06055 335.73047 L 619.06055 329.38281 C 619.06055 328.23783 618.83671 327.16752 618.38867 326.17188 C 617.99042 325.12645 617.39417 324.22915 616.59766 323.48242 C 615.85093 322.73569 614.95363 322.13944 613.9082 321.69141 C 612.91256 321.24337 611.81781 321.01953 610.62305 321.01953 z M 527.16406 321.16797 L 527.16406 337.44727 L 535.22852 337.44727 C 536.32372 337.44727 537.36959 337.24787 538.36523 336.84961 C 539.36087 336.40157 540.23179 335.80337 540.97852 335.05664 C 541.72525 334.30991 542.29706 333.46539 542.69531 332.51953 C 543.14335 331.52389 543.36719 330.45358 543.36719 329.30859 C 543.36719 328.21339 543.14335 327.16752 542.69531 326.17188 C 542.29706 325.17623 541.72525 324.30532 540.97852 323.55859 C 540.23179 322.81186 539.36087 322.2381 538.36523 321.83984 C 537.36959 321.39181 536.32372 321.16797 535.22852 321.16797 L 527.16406 321.16797 z "
         transform="translate(0,458.36216)"
         id="rect4177" />
    </g>
    <path
       style="opacity:1;fill:#1a1a1a;fill-opacity:1;fill-rule:nonzero;stroke:none;stroke-width:2;stroke-linecap:round;stroke-linejoin:round;stroke-miterlimit:4;stroke-dasharray:none;stroke-dashoffset:0;stroke-opacity:1"
       d="M 501.29297 430 C 495.46139 430 490.76758 434.23831 490.76758 439.50391 L 490.76758 520.49609 C 490.76758 525.76169 495.46139 530 501.29297 530 L 1019.1875 530 C 1025.0191 530 1029.7148 525.76169 1029.7148 520.49609 L 1029.7148 439.50391 C 1029.7148 434.23831 1025.0191 430 1019.1875 430 L 501.29297 430 z M 543.69336 451.93164 C 546.0829 451.93164 548.37209 452.37931 550.5625 453.27539 C 552.75291 454.12168 554.66969 455.34057 556.3125 456.93359 C 557.95531 458.47684 559.27389 460.31836 560.26953 462.45898 C 561.26517 464.59961 561.76367 466.9152 561.76367 469.4043 L 561.76367 481.57617 C 561.76367 484.06527 561.29156 486.40529 560.3457 488.5957 C 559.84788 489.84025 559.22525 491.01026 558.47852 492.10547 C 558.97634 492.25481 559.47484 492.23038 559.97266 492.03125 C 561.21721 491.63299 562.43609 491.65743 563.63086 492.10547 C 564.87541 492.50372 565.72188 493.37464 566.16992 494.71875 C 566.66774 496.11265 566.61692 497.45567 566.01953 498.75 C 565.47193 499.99455 564.37718 500.91629 562.73438 501.51367 C 561.09157 502.06127 559.52276 502.28511 558.0293 502.18555 C 556.58562 502.13576 555.11846 501.71253 553.625 500.91602 C 552.43023 500.26885 551.35992 499.44877 550.41406 498.45312 C 548.32322 499.24964 546.0829 499.64648 543.69336 499.64648 C 541.20426 499.64648 538.86424 499.22325 536.67383 498.37695 C 534.48342 497.48088 532.56663 496.26199 530.92383 494.71875 C 529.28102 493.12573 527.96244 491.25781 526.9668 489.11719 C 525.97116 486.97656 525.47266 484.66293 525.47266 482.17383 L 525.47266 470.00195 C 525.47266 467.51285 525.92033 465.17283 526.81641 462.98242 C 527.76226 460.79201 529.03198 458.87523 530.625 457.23242 C 532.26781 455.58962 534.18459 454.29547 536.375 453.34961 C 538.56541 452.40375 541.00513 451.93164 543.69336 451.93164 z M 571.75781 451.93164 C 573.05214 451.93164 574.19577 452.42819 575.19141 453.42383 C 576.18705 454.36969 576.68555 455.49082 576.68555 456.78516 L 576.68555 481.72461 C 576.68555 482.81981 576.90938 483.86569 577.35742 484.86133 C 577.80546 485.85697 578.40366 486.70344 579.15039 487.40039 C 579.89712 488.09734 580.76803 488.66915 581.76367 489.11719 C 582.75931 489.51544 583.80519 489.71484 584.90039 489.71484 C 586.09516 489.71484 587.18991 489.49101 588.18555 489.04297 C 589.23097 488.59493 590.12632 487.99868 590.87305 487.25195 C 591.66956 486.50522 592.26776 485.63431 592.66602 484.63867 C 593.11405 483.59325 593.33789 482.49655 593.33789 481.35156 L 593.33789 456.56055 C 593.33789 455.21643 593.81 454.12168 594.75586 453.27539 C 595.7515 452.37931 596.92151 451.93164 598.26562 451.93164 C 599.60974 451.98142 600.73088 452.47797 601.62695 453.42383 C 602.57281 454.36969 603.04492 455.49082 603.04492 456.78516 L 603.04492 481.94922 C 603.04492 484.43832 602.54642 486.75391 601.55078 488.89453 C 600.55514 491.03516 599.23656 492.90112 597.59375 494.49414 C 595.95094 496.03738 594.03416 497.25822 591.84375 498.1543 C 589.65334 499.00059 587.36415 499.42383 584.97461 499.42383 C 582.38595 499.42383 579.99705 498.94976 577.80664 498.00391 C 575.61623 497.05805 573.69945 495.7639 572.05664 494.12109 C 570.46362 492.47829 569.1939 490.5615 568.24805 488.37109 C 567.35197 486.18069 566.87791 483.84066 566.82812 481.35156 L 566.82812 456.56055 C 566.82812 455.26621 567.32663 454.17147 568.32227 453.27539 C 569.31791 452.37931 570.46348 451.93164 571.75781 451.93164 z M 626.64258 451.93164 L 653.44922 451.93164 C 654.8929 451.93164 656.08735 452.42819 657.0332 453.42383 C 658.02884 454.41947 658.52734 455.61392 658.52734 457.00781 C 658.52734 458.45149 658.02884 459.64789 657.0332 460.59375 C 656.08735 461.53961 654.8929 462.01172 653.44922 462.01172 L 645.08594 462.01172 L 645.08594 494.56836 C 645.08594 496.01204 644.61383 497.23288 643.66797 498.22852 C 642.72211 499.17437 641.52571 499.64648 640.08203 499.64648 C 638.63835 499.64648 637.4439 499.17437 636.49805 498.22852 C 635.55219 497.23288 635.08008 496.01204 635.08008 494.56836 L 635.08008 462.01172 L 626.64258 462.01172 C 625.24868 462.01172 624.05228 461.53961 623.05664 460.59375 C 622.11078 459.64789 621.63867 458.45149 621.63867 457.00781 C 621.63867 455.61392 622.11078 454.41947 623.05664 453.42383 C 624.05228 452.42819 625.24868 451.93164 626.64258 451.93164 z M 612.9668 452.00586 C 614.31091 452.00586 615.45649 452.50436 616.40234 453.5 C 617.39798 454.49564 617.89648 455.6637 617.89648 457.00781 L 617.89648 494.64453 C 617.89648 496.03843 617.39798 497.23288 616.40234 498.22852 C 615.45649 499.17437 614.31091 499.64648 612.9668 499.64648 C 611.52312 499.64648 610.30423 499.17437 609.30859 498.22852 C 608.36274 497.23288 607.88867 496.03843 607.88867 494.64453 L 607.88867 457.00781 C 607.88867 455.6637 608.36274 454.49564 609.30859 453.5 C 610.30423 452.50436 611.52312 452.00586 612.9668 452.00586 z M 543.61914 461.63867 C 542.42437 461.63867 541.32767 461.86251 540.33203 462.31055 C 539.33639 462.7088 538.46548 463.25618 537.71875 463.95312 C 536.97202 464.65007 536.37577 465.49655 535.92773 466.49219 C 535.4797 467.48783 535.25586 468.5337 535.25586 469.62891 L 535.25586 481.42773 C 536.20172 480.38231 537.39617 479.60915 538.83984 479.11133 C 540.68178 478.46416 542.39916 478.21589 543.99219 478.36523 C 545.63499 478.4648 547.17742 478.81277 548.62109 479.41016 C 549.81586 479.85819 550.937 480.53166 551.98242 481.42773 L 552.05664 470.00195 C 552.05664 468.85697 551.8328 467.78666 551.38477 466.79102 C 550.98651 465.74559 550.38831 464.85025 549.5918 464.10352 C 548.84507 463.35679 547.94972 462.75858 546.9043 462.31055 C 545.90866 461.86251 544.81391 461.63867 543.61914 461.63867 z M 543.13281 487.81055 C 542.63499 487.86033 542.09984 488.02307 541.52734 488.29688 C 541.02952 488.69513 540.68155 489.06754 540.48242 489.41602 C 541.47806 489.76449 542.42424 489.96389 543.32031 490.01367 C 544.41552 489.96389 545.3353 489.83975 546.08203 489.64062 C 545.78334 488.89389 545.2604 488.34652 544.51367 487.99805 C 544.09052 487.82381 543.63063 487.76076 543.13281 487.81055 z "
       transform="translate(0,452.36216)"
       id="rect4183"
       inkscape:export-xdpi="90"
       inkscape:export-ydpi="90" />
    <path
       style="opacity:1;fill:#1a1a1a;fill-opacity:1;fill-rule:nonzero;stroke:none;stroke-width:2;stroke-linecap:round;stroke-linejoin:round;stroke-miterlimit:4;stroke-dasharray:none;stroke-dashoffset:0;stroke-opacity:1"
       d="M 5.6933594 430 C 1.8558095 430 -1.2324219 434.23831 -1.2324219 439.50391 L -1.2324219 520.49609 C -1.2324219 525.76169 1.8558095 530 5.6933594 530 L 346.50195 530 C 350.3395 530 353.42773 525.76169 353.42773 520.49609 L 353.42773 439.50391 C 353.42773 434.23831 350.3395 430 346.50195 430 L 5.6933594 430 z M 117.72266 451.78125 L 130.79102 451.78125 C 133.28012 451.78125 135.61819 452.25531 137.80859 453.20117 C 140.04878 454.14703 141.99196 455.44118 143.63477 457.08398 C 145.27757 458.72679 146.57172 460.66801 147.51758 462.9082 C 148.46344 465.09861 148.93555 467.43863 148.93555 469.92773 C 148.93555 473.21335 148.1399 476.22488 146.54688 478.96289 C 145.00363 481.65112 142.93632 483.79174 140.34766 485.38477 L 146.02344 490.91016 C 146.9693 491.9058 147.44141 493.10024 147.44141 494.49414 C 147.44141 495.88804 146.94486 497.08248 145.94922 498.07812 C 145.05314 499.07377 143.90757 499.57227 142.51367 499.57227 C 141.11978 499.57227 139.92533 499.07377 138.92969 498.07812 L 128.77344 488.07227 L 122.72461 488.07227 L 122.72461 494.64453 C 122.72461 496.03843 122.22806 497.23288 121.23242 498.22852 C 120.28656 499.17437 119.11655 499.64648 117.72266 499.64648 C 116.32876 499.64648 115.13431 499.17437 114.13867 498.22852 C 113.19281 497.23288 112.71875 496.03843 112.71875 494.64453 L 112.71875 456.78516 C 112.71875 455.39126 113.19281 454.22125 114.13867 453.27539 C 115.13431 452.27975 116.32876 451.78125 117.72266 451.78125 z M 91.767578 451.93164 C 93.211256 451.93164 94.505405 452.05578 95.650391 452.30469 C 97.691453 452.65316 99.583802 453.32467 101.32617 454.32031 C 103.96462 455.81377 106.05441 457.90552 107.59766 460.59375 C 107.79678 460.94222 107.97175 461.36546 108.12109 461.86328 C 108.32022 462.3611 108.41992 462.83321 108.41992 463.28125 C 108.41992 464.67515 107.92142 465.86959 106.92578 466.86523 C 105.93014 467.86087 104.73569 468.35938 103.3418 468.35938 C 102.24659 468.35938 101.35124 468.08471 100.6543 467.53711 C 99.957349 466.93973 99.334711 466.21739 98.787109 465.37109 C 98.189725 464.37545 97.367688 463.57981 96.322266 462.98242 C 95.475972 462.4846 94.381223 462.06136 93.037109 461.71289 C 92.638853 461.66311 92.191179 461.63867 91.693359 461.63867 C 90.498591 461.63867 89.403843 461.86251 88.408203 462.31055 C 87.412563 462.7088 86.539699 463.25618 85.792969 463.95312 C 85.046239 464.65007 84.449991 465.49655 84.001953 466.49219 C 83.553915 467.48783 83.330078 468.5337 83.330078 469.62891 L 83.330078 481.57617 C 83.280296 482.72116 83.453306 483.81591 83.851562 484.86133 C 84.299601 485.85697 84.897801 486.72788 85.644531 487.47461 C 86.441043 488.22134 87.336391 488.81954 88.332031 489.26758 C 89.377453 489.71562 90.547465 489.93945 91.841797 489.93945 L 92.738281 489.93945 C 94.231741 489.64076 95.42619 489.21752 96.322266 488.66992 C 97.317906 488.07254 98.139943 487.27689 98.787109 486.28125 C 99.334711 485.43496 99.906522 484.73706 100.50391 484.18945 C 101.10129 483.64185 102.0719 483.36914 103.41602 483.36914 C 104.76013 483.36914 105.93014 483.86569 106.92578 484.86133 C 107.92142 485.80719 108.41992 487.00163 108.41992 488.44531 C 108.41992 488.94313 108.32022 489.4172 108.12109 489.86523 C 107.97175 490.31327 107.77235 490.78538 107.52344 491.2832 C 106.07976 493.82209 104.03884 495.86301 101.40039 497.40625 C 98.761944 498.89971 95.774847 499.64648 92.439453 499.64648 L 91.767578 499.64648 C 89.278478 499.64648 86.938455 499.22325 84.748047 498.37695 C 82.557639 497.48088 80.640853 496.26199 78.998047 494.71875 C 77.355241 493.12573 76.036656 491.25781 75.041016 489.11719 C 74.045376 486.97656 73.546875 484.66293 73.546875 482.17383 L 73.546875 470.00195 C 73.546875 467.51285 73.994549 465.17283 74.890625 462.98242 C 75.836483 460.79201 77.106195 458.87523 78.699219 457.23242 C 80.342025 455.58962 82.258811 454.29547 84.449219 453.34961 C 86.639627 452.40375 89.07935 451.93164 91.767578 451.93164 z M 158.48828 451.93164 L 179.84375 451.93164 C 181.23765 451.93164 182.40766 452.42819 183.35352 453.42383 C 184.34916 454.41947 184.84766 455.61392 184.84766 457.00781 C 184.84766 458.45149 184.34916 459.64789 183.35352 460.59375 C 182.40766 461.53961 181.23765 462.01172 179.84375 462.01172 L 163.41602 462.01172 L 163.41602 470.52539 L 174.8418 470.52539 C 176.18591 470.52539 177.35592 471.02194 178.35156 472.01758 C 179.3472 473.01322 179.84375 474.20767 179.84375 475.60156 C 179.84375 476.99546 179.3472 478.19186 178.35156 479.1875 C 177.35592 480.13336 176.18591 480.60547 174.8418 480.60547 L 163.41602 480.60547 L 163.41602 489.56641 L 179.84375 489.56641 C 181.23765 489.56641 182.40766 490.06491 183.35352 491.06055 C 184.34916 492.05619 184.84766 493.22425 184.84766 494.56836 C 184.84766 496.01204 184.34916 497.23288 183.35352 498.22852 C 182.40766 499.17437 181.23765 499.64648 179.84375 499.64648 L 158.48828 499.64648 C 157.19395 499.64648 156.02394 499.17437 154.97852 498.22852 C 153.98288 497.23288 153.48438 496.01204 153.48438 494.56836 L 153.48438 457.00781 C 153.48438 455.71348 153.95844 454.54542 154.9043 453.5 C 155.85015 452.45458 157.0446 451.93164 158.48828 451.93164 z M 195.02344 451.93164 L 208.68945 451.93164 C 210.87986 451.93164 212.99605 452.37931 215.03711 453.27539 C 217.12795 454.12168 218.94504 455.31613 220.48828 456.85938 C 222.08131 458.40262 223.35102 460.19527 224.29688 462.23633 C 225.24273 464.27739 225.71484 466.49132 225.71484 468.88086 L 225.71484 482.69531 C 225.71484 484.9355 225.24273 487.07613 224.29688 489.11719 C 223.4008 491.15825 222.17996 492.97534 220.63672 494.56836 C 219.09348 496.1116 217.27639 497.35688 215.18555 498.30273 C 213.14448 499.19881 210.97943 499.64648 208.68945 499.64648 L 195.02344 499.64648 C 193.67932 499.64648 192.48488 499.17437 191.43945 498.22852 C 190.44381 497.23288 189.94727 496.01204 189.94727 494.56836 L 189.94727 457.00781 C 189.94727 455.71348 190.41938 454.54542 191.36523 453.5 C 192.36087 452.45458 193.57976 451.93164 195.02344 451.93164 z M 249.16992 451.93164 L 275.97656 451.93164 C 277.42024 451.93164 278.61469 452.42819 279.56055 453.42383 C 280.55619 454.41947 281.05469 455.61392 281.05469 457.00781 C 281.05469 458.45149 280.55619 459.64789 279.56055 460.59375 C 278.61469 461.53961 277.42024 462.01172 275.97656 462.01172 L 267.61328 462.01172 L 267.61328 494.56836 C 267.61328 496.01204 267.14117 497.23288 266.19531 498.22852 C 265.24945 499.17437 264.05305 499.64648 262.60938 499.64648 C 261.1657 499.64648 259.97125 499.17437 259.02539 498.22852 C 258.07953 497.23288 257.60742 496.01204 257.60742 494.56836 L 257.60742 462.01172 L 249.16992 462.01172 C 247.77603 462.01172 246.57962 461.53961 245.58398 460.59375 C 244.63813 459.64789 244.16602 458.45149 244.16602 457.00781 C 244.16602 455.61392 244.63813 454.41947 245.58398 453.42383 C 246.57962 452.42819 247.77603 451.93164 249.16992 451.93164 z M 298.56055 451.93164 L 311.85156 451.93164 C 313.19568 451.93164 314.34125 452.42819 315.28711 453.42383 C 316.23297 454.36969 316.7559 455.56413 316.85547 457.00781 C 316.85547 458.45149 316.38336 459.64789 315.4375 460.59375 C 314.49164 461.53961 313.29524 462.01172 311.85156 462.01172 L 298.56055 462.01172 C 297.36578 462.01172 296.34434 462.45939 295.49805 463.35547 C 294.70153 464.20176 294.28025 465.27207 294.23047 466.56641 C 294.28025 467.71139 294.70153 468.70839 295.49805 469.55469 C 296.34434 470.3512 297.36578 470.74805 298.56055 470.74805 L 303.63867 470.74805 C 305.48061 470.74805 307.24686 471.12241 308.93945 471.86914 C 310.68182 472.61587 312.2262 473.65979 313.57031 475.00391 C 314.91443 476.29824 315.98474 477.84261 316.78125 479.63477 C 317.57776 481.37714 317.97461 483.24309 317.97461 485.23438 C 317.97461 487.17587 317.6022 489.01935 316.85547 490.76172 C 316.10874 492.50409 315.0873 494.02207 313.79297 495.31641 C 312.49864 496.61074 310.98065 497.65661 309.23828 498.45312 C 307.49591 499.19986 305.62995 499.5967 303.63867 499.64648 L 290.3457 499.64648 C 288.85224 499.64648 287.63336 499.17437 286.6875 498.22852 C 285.74164 497.23288 285.26953 496.01204 285.26953 494.56836 C 285.26953 493.22425 285.74164 492.05619 286.6875 491.06055 C 287.68314 490.06491 288.90203 489.56641 290.3457 489.56641 L 303.63867 489.56641 C 304.78366 489.56641 305.80314 489.14317 306.69922 488.29688 C 307.59529 487.45058 308.04492 486.42914 308.04492 485.23438 C 308.04492 483.98982 307.59529 482.97034 306.69922 482.17383 C 305.85292 481.32753 304.85788 480.87986 303.71289 480.83008 L 298.56055 480.83008 C 296.66883 480.7803 294.85175 480.3815 293.10938 479.63477 C 291.367 478.88804 289.82458 477.89299 288.48047 476.64844 C 287.18614 475.35411 286.14026 473.83417 285.34375 472.0918 C 284.54724 470.34943 284.14844 468.45903 284.14844 466.41797 C 284.14844 464.57603 284.5228 462.78339 285.26953 461.04102 C 286.01626 459.29865 287.03575 457.75622 288.33008 456.41211 C 289.67419 455.068 291.21857 453.99768 292.96094 453.20117 C 294.70331 452.35488 296.56927 451.93164 298.56055 451.93164 z M 235.49414 452.00586 C 236.83825 452.00586 237.98383 452.50436 238.92969 453.5 C 239.92533 454.49564 240.42383 455.6637 240.42383 457.00781 L 240.42383 494.64453 C 240.42383 496.03843 239.92533 497.23288 238.92969 498.22852 C 237.98383 499.17437 236.83825 499.64648 235.49414 499.64648 C 234.05046 499.64648 232.83158 499.17437 231.83594 498.22852 C 230.89008 497.23288 230.41602 496.03843 230.41602 494.64453 L 230.41602 457.00781 C 230.41602 455.6637 230.89008 454.49564 231.83594 453.5 C 232.83158 452.50436 234.05046 452.00586 235.49414 452.00586 z M 122.72461 461.78711 L 122.72461 478.06641 L 130.79102 478.06641 C 131.88622 478.06641 132.93014 477.86701 133.92578 477.46875 C 134.92142 477.02071 135.79233 476.42446 136.53906 475.67773 C 137.28579 474.931 137.85956 474.08453 138.25781 473.13867 C 138.70585 472.14303 138.92969 471.07272 138.92969 469.92773 C 138.92969 468.83253 138.70585 467.78666 138.25781 466.79102 C 137.85956 465.79538 137.28579 464.92446 136.53906 464.17773 C 135.79233 463.431 134.92142 462.85724 133.92578 462.45898 C 132.93014 462.01095 131.88622 461.78711 130.79102 461.78711 L 122.72461 461.78711 z M 200.02734 462.08594 L 200.02734 489.49219 L 208.68945 489.49219 C 209.63531 489.49219 210.53066 489.31722 211.37695 488.96875 C 212.22325 488.62028 212.94558 488.14817 213.54297 487.55078 C 214.19013 486.90362 214.68864 486.18128 215.03711 485.38477 C 215.38558 484.53847 215.55859 483.64117 215.55859 482.69531 L 215.55859 468.88086 C 215.55859 467.935 215.38558 467.06409 215.03711 466.26758 C 214.68864 465.42128 214.19013 464.7009 213.54297 464.10352 C 212.94558 463.45635 212.22325 462.95785 211.37695 462.60938 C 210.53066 462.2609 209.63531 462.08594 208.68945 462.08594 L 200.02734 462.08594 z "
       transform="translate(0,452.36216)"
       id="rect4405"
       inkscape:export-xdpi="90"
       inkscape:export-ydpi="90" />
  </g>
</svg>
